<svg viewBox="0 0 500 500" xmlns="http://www.w3.org/2000/svg">
  <defs></defs>
  <g transform="matrix(0.052726, 0, 0, -0.047096, 96.530457, 247.232193)" fill="#000000" stroke="none" style="">
    <path d="M 3250 4440 C 3234 4440 2052.974 3772.512 2086.974 3761.512 C 2110.974 3753.512 3038 3213 3160 3148 C 3257 3096 3250 3121 3250 2830 C 3250 2689 3253 2390 3257 2167 L 3262.515 1751.816 C 3262.515 1751.816 4417.21 2394.287 4421.21 2404.287 C 4429.21 2424.287 4431 3327 4421 3599 L 4415 3784 L 4360 3813 C 4330 3830 3267 4440 3250 4440 Z"></path>
    <path d="M 1860 3628 C 1830 3611 745.534 2993.841 729.534 2985.841 C 729.534 2985.841 718.244 1655.329 737.244 1638.329 C 748.244 1629.329 1876 979 1889 972 C 1909 960 1914 960 1922 972 C 1927 980 1928 1250 1924 1637 L 1917 2288 C 1917 2288 3100.188 2974.105 3090.188 2985.105 C 3083.188 2993.105 1998 3614 1970 3630 C 1942 3647 1918 3660 1917 3659 C 1916 3659 1890 3645 1860 3628 Z"></path>
    <path d="M 4424.103 2225.006 C 4402.103 2209.006 3269 1560 3253 1560 C 3243 1560 3224 1569 3210 1580 C 3196 1591 2092.265 2209.435 2081.265 2209.435 C 2062.265 2209.435 2080 883 2080 883 C 2080 883 3274 198 3277 208 C 3280 214 3290 220 3301 220 C 3311 220 4409 872 4420 875 C 4440 881 4450.203 890.84 4450.203 1537.84 C 4449.203 1897.84 4468.103 2257.006 4424.103 2225.006 Z"></path>
  </g>
  <text style="font-family: Arial; font-size: 28px; font-weight: 700; letter-spacing: 3.6px; white-space: pre;" transform="matrix(3.599745, 0, 0, 3.706042, -631.091736, -788.271484)" x="176.18" y="303.651">SPEKTR</text>
</svg>